<svg data-name="Layer 1" width="300" height="163.7" xmlns="http://www.w3.org/2000/svg"><g transform="matrix(-1 0 0 1 1006 0)"><path d="M966 163s3-9-2-17c4 8 2 16 2 16z" fill="#e4e4e4" style="stroke-width:.298211"/><path d="M961 147a4 4 0 1 0 7-1c0-3-4-8-6-7-3 0-2 6-1 8zm0 10c2 2 6 2 6 2s0-3-2-5-5-2-5-2-1 3 1 5zm29 6s6-20-5-38h-1c11 18 5 38 5 38z" fill="#e4e4e4" style="stroke-width:.298211"/><path d="M977 127a9 9 0 0 0 18-4c-1-5-10-17-15-16s-4 15-3 20zm1 24c5 4 13 4 13 4s1-8-4-12c-4-5-12-5-12-5s-1 8 3 13z" fill="#e4e4e4" style="stroke-width:.298211"/><path d="m879 162-4-2-3-22h-40l-3 22-4 2a1 1 0 0 0 0 1h54a1 1 0 0 0 0-1z" fill="#e6e6e6" style="stroke-width:.298211"/><path d="M950 141H754a4 4 0 0 1-4-4v-28h204v28a4 4 0 0 1-4 4z" fill="#ccc" style="stroke-width:.298211"/><path d="M954 123H750V5a5 5 0 0 1 5-5h194a5 5 0 0 1 5 5z" fill="#3f3d56" style="stroke-width:.298211"/><path d="M942 9H762a4 4 0 0 0-3 3v98a4 4 0 0 0 3 4h180a4 4 0 0 0 3-4V12a4 4 0 0 0-3-3z" fill="#fff" style="stroke-width:.298211"/><path d="M794 9v105h-32a4 4 0 0 1-3-4V12a4 4 0 0 1 3-3z" fill="#f0f0f0" style="stroke-width:.298211"/><path d="M768 62a2 2 0 0 0-3 2l-9 3 4 2 7-2a3 3 0 0 0 1-5z" fill="#ffb6b6" style="stroke-width:.298211"/><path d="M733 81a4 4 0 0 1-1-7l18-6 13-5 2 6-12 8-19 4a4 4 0 0 1-1 0z" fill="#00e0ff" style="stroke-width:.298211"/><path fill="#ffb6b6" d="M744 161h3l1-10h-4z" style="stroke-width:.298211"/><path d="M744 160h5a3 3 0 0 1 3 3h-8z" fill="#2f2e41" style="stroke-width:.298211"/><path fill="#ffb6b6" d="M726 161h2l1-10h-3z" style="stroke-width:.298211"/><path d="M725 160h5a3 3 0 0 1 3 3h-8zm1-56a13 13 0 0 0-1 9l-1 46h6l3-25 5-17 5 13v27h5l3-29-3-21z" fill="#2f2e41" style="stroke-width:.298211"/><path d="m745 68-4-1-2-3h-5l-2 3s-6 2-6 13l-1 27 23 3z" fill="#00e0ff" style="stroke-width:.298211"/><path d="M752 109a2 2 0 0 0-2-4v-9l-4 3 1 8a2 2 0 0 0 5 2z" fill="#ffb6b6" style="stroke-width:.298211"/><path d="m746 104-5-13V72a4 4 0 0 1 6-1l3 18 2 14z" fill="#00e0ff" style="stroke-width:.298211"/><circle cx="737.6" cy="55.5" r="5.8" fill="#ffb9b9" style="stroke-width:.298211"/><path d="m738 54-1 1v1a1 1 0 0 1-1 1 1 1 0 0 0-1 0 1 1 0 0 0-1 0l1 2a3 3 0 0 1 0 1l-1 1-1 1-1-1-1-1-2-5c-1-2 0-4 2-5a5 5 0 0 1 2-2h3l3-1h2l2 2a4 4 0 0 0 3 0l-2 1a3 3 0 0 0 2 0 2 2 0 0 1-2 1 1 1 0 0 0 1 1h-6l-1 1z" fill="#2f2e41" style="stroke-width:.298211"/><circle cx="776.5" cy="61.3" r="9.3" fill="#00e0ff" style="stroke-width:.298211"/><path fill="#fff" d="M782 61h-5v-5h-1v5h-5v1h5v5h1v-5h5zm74-40a1 1 0 0 0-1 1v18a1 1 0 0 0 1 1h73a1 1 0 0 0 2-1V22a1 1 0 0 0-2-1z" style="stroke-width:.298211"/><path d="M856 21a1 1 0 0 0-1 1v18a1 1 0 0 0 1 1h73a1 1 0 0 0 2-1V22a1 1 0 0 0-2-1z" fill="#e6e6e6" style="stroke-width:.298211"/><path d="M856 40h73V22h-73z" fill="#fff" style="stroke-width:.298211"/><path d="M865 27a1 1 0 0 0 0 2h56a1 1 0 1 0 0-2zm0 6a1 1 0 0 0 0 2h56a1 1 0 0 0 0-2z" fill="#e4e4e4" style="stroke-width:.298211"/><path d="M805 52a1 1 0 0 0-1 1v18a1 1 0 0 0 1 1h73a1 1 0 0 0 2-1V53a1 1 0 0 0-2-1z" fill="#fff" style="stroke-width:.298211"/><path d="M805 52a1 1 0 0 0-1 1v18a1 1 0 0 0 1 1h73a1 1 0 0 0 2-1V53a1 1 0 0 0-2-1z" fill="#e6e6e6" style="stroke-width:.298211"/><path d="M805 71h73V53h-73z" fill="#fff" style="stroke-width:.298211"/><path d="M814 58a1 1 0 0 0 0 2h56a1 1 0 1 0 0-2zm0 6a1 1 0 0 0 0 2h56a1 1 0 0 0 0-2z" fill="#e4e4e4" style="stroke-width:.298211"/><path d="M894 100a2 2 0 0 0 2-2l7-5-4-1-6 4a2 2 0 0 0 1 4z" fill="#ffb7b7" style="stroke-width:.298211"/><path d="m898 98-2-4 9-10 6-12 6 1v2l-9 14z" fill="#3f3d56" style="stroke-width:.298211"/><path fill="#ffb7b7" d="M927 160h-4l-1-13h5z" style="stroke-width:.298211"/><path d="M928 163h-11a4 4 0 0 1 4-4h7z" fill="#2f2e41" style="stroke-width:.298211"/><path fill="#ffb7b7" d="m898 160-3-1 2-13 4 1z" style="stroke-width:.298211"/><path d="m898 163-10-3a4 4 0 0 1 5-3l6 2zm13-96v-6a7 7 0 0 1 15 0v6a1 1 0 0 1-1 0h-13a1 1 0 0 1-1 0z" fill="#2f2e41" style="stroke-width:.298211"/><circle cx="916.8" cy="61.9" r="5.5" fill="#ffb7b7" style="stroke-width:.298211"/><path d="M909 61a6 6 0 0 1 6-6h2a6 6 0 0 1 5 6h-2l-1-2v2h-1l-1-1v1z" fill="#2f2e41" style="stroke-width:.298211"/><path d="m920 91-14-1-1-9v-4a4 4 0 0 1 3-2l3-4a4 4 0 0 1 3-1h11c3 1 2 5 2 5l-5 4z" fill="#3f3d56" style="stroke-width:.298211"/><path fill="#2f2e41" d="m906 89-6 12-6 55 6 2 10-43 12 42h6l-4-48-4-19z" style="stroke-width:.298211"/><path d="M863 81a1 1 0 0 0-1 0l-6 17a1 1 0 0 0 1 2l70 23a1 1 0 0 0 1-1l6-18a1 1 0 0 0-1-1z" fill="#fff" style="stroke-width:.298211"/><path d="M863 81a1 1 0 0 0-1 0l-6 17a1 1 0 0 0 1 2l70 23a1 1 0 0 0 1-1l6-18a1 1 0 0 0-1-1z" fill="#e6e6e6" style="stroke-width:.298211"/><path d="m857 99 70 22 6-17-70-22z" fill="#fff" style="stroke-width:.298211"/><path d="M869 89a1 1 0 0 0 0 2l54 17a1 1 0 1 0 0-2zm-1 6a1 1 0 0 0-1 1l54 18a1 1 0 0 0 0-2z" fill="#00e0ff" style="stroke-width:.298211"/><path d="M924 109a2 2 0 0 0 0-3l2-8-4 1-2 7a2 2 0 0 0 4 3z" fill="#ffb7b7" style="stroke-width:.298211"/><path d="m925 104-4-1 2-14-2-13 5-3 2 2v17z" fill="#3f3d56" style="stroke-width:.298211"/><path d="M1005 164H802a1 1 0 0 1-1-1 1 1 0 0 1 1 0h203a1 1 0 0 1 1 0 1 1 0 0 1-1 1zm-230 0h-68a1 1 0 0 1-1-1 1 1 0 0 1 1 0h68a1 1 0 0 1 0 1z" fill="#ccc" style="stroke-width:.298211"/></g></svg>