<svg width="64" height="64" fill="none" xmlns="http://www.w3.org/2000/svg"><path d="M62.3 47.1C62.2 22.7 41.5 2.1 17.1 2L2.3 62l60-14.9Z" fill="#F6DA77"/><path d="m54.5 49 2.1-.4c-1-19-14.6-38.9-41-40.9l-.3 2C35.5 12.3 52 28.7 54.5 49Z" fill="#860D16"/><path d="m56.5 48.6 5.7-1.4C62.3 22.8 41.5 2 16.9 2l-1.4 5.7c23.5 2.2 38.8 17.6 41 40.9Z" fill="#C98E52"/><path d="M13.5 41.7c-1.7 0-3.2-.6-4.4-1.8-.5-.5-.5-1.3 0-1.7.5-.5 1.3-.5 1.7 0 1.4 1.4 3.9 1.4 5.3 0 .7-.7 1.1-1.6 1.1-2.6s-.4-1.9-1.1-2.6c-.5-.5-.5-1.3 0-1.7.5-.5 1.3-.5 1.7 0 1.2 1.2 1.8 2.7 1.8 4.4 0 1.7-.6 3.2-1.8 4.4-1.1.9-2.7 1.6-4.3 1.6m25.1-19.8v.5c-.1.3-.2.5-.5.7-.3.2-.6.2-.8.1-.8-.2-1.6 0-2.3.4-.7.4-1.2 1.1-1.4 1.9-.4 1.6.7 3.3 2.3 3.7.6.1 1 .8.8 1.3-.1.6-.7 1-1.3.8-2-.5-3.5-2-4-4-.2-.8-.2-1.6 0-2.3.3-1.4 1.2-2.5 2.4-3.3 1.2-.8 2.6-1 4-.7.3.2.7.5.8.9m5.3 29h-.5c-.3-.1-.5-.2-.6-.5-.1-.2-.2-.5-.1-.8.2-.7.1-1.5-.3-2.2-.4-.7-1-1.2-1.8-1.4-1.5-.4-3.2.6-3.6 2-.1.5-.8.9-1.3.7-.6-.2-.9-.7-.7-1.3.5-1.8 2-3.3 3.9-3.6.7-.1 1.5-.1 2.2.1 1.3.3 2.4 1.2 3 2.3.7 1.2.8 2.5.5 3.8 0 .5-.3.8-.7.9Z" fill="#83BF4F"/><path d="M37.1 36.2c1.4 4.1-.8 8.5-5 9.9-4.2 1.4-8.7-.8-10-4.9-1.4-4.1.8-8.5 5-9.9 4.1-1.4 8.6.8 10 4.9Zm12.5.8c.8 2.5-.5 5.1-3 6-2.5.8-5.2-.5-6-3-.8-2.5.5-5.1 3-6 2.4-.8 5.1.5 6 3ZM29 19c1.1 3.3-.7 7-4.1 8.1-3.4 1.1-7.1-.7-8.2-4-1.1-3.3.7-7 4.1-8.1 3.4-1.1 7.1.7 8.2 4m5.4 35-9.7 2.4c-.9-2.6.9-5.7 3.5-6.4 3.2-.8 5.3 1.5 6.2 4Zm-14.8-7c1.2 3.4-.7 7.2-4.2 8.3-3.5 1.2-7.3-.7-8.5-4.2-1.2-3.4.7-7.2 4.2-8.3 3.5-1.1 7.3.8 8.5 4.2Z" fill="#B21725"/><path d="M15.5 7.7c5.3.1 10.6 1.1 15.6 3.1 5 1.9 9.7 4.9 13.5 8.8 3.8 3.8 6.8 8.5 8.8 13.5 2 5 3 10.3 3.1 15.6-.9-5.2-2.3-10.3-4.5-15-2.2-4.7-5.1-9.1-8.8-12.7-3.6-3.7-8-6.6-12.7-8.7-4.7-2.3-9.8-3.7-15-4.6" fill="#E0A763"/><path d="m16.794 13.436 1.98-1.98 1.98 1.98-1.98 1.98-1.98-1.98Zm12.926 5.608 1.98-1.98 1.98 1.98-1.98 1.98-1.98-1.98Zm-16.812 7.404 1.98-1.98 1.98 1.98-1.98 1.98-1.98-1.98Zm6.84 5.687 1.98-1.98 1.98 1.98-1.98 1.98-1.98-1.98Zm17.797.255 1.98-1.98 1.98 1.98-1.98 1.98-1.98-1.98Zm11.479 14.151 1.98-1.98 1.98 1.98-1.98 1.98-1.98-1.98Zm-29.407-1.889 1.98-1.98 1.98 1.98-1.98 1.98-1.98-1.98Zm1.417 7.251 1.98-1.98 1.98 1.98-1.98 1.98-1.98-1.98ZM4.338 58.241l1.98-1.98 1.98 1.98-1.98 1.98-1.98-1.98Zm9.632-40.913 1.485-1.485 1.485 1.485-1.485 1.485-1.485-1.485Zm12.582 10.565 1.485-1.485 1.485 1.485-1.485 1.485-1.485-1.485Zm13.523.062 1.485-1.485 1.485 1.485-1.485 1.485-1.485-1.485Zm-26.64 8.209 1.486-1.485 1.485 1.485-1.485 1.485-1.485-1.485ZM7.36 42.1l1.485-1.485 1.485 1.484-1.485 1.485L7.36 42.1ZM5.03 54.485 6.515 53 8 54.485 6.515 55.97 5.03 54.485Zm12.846.801 1.485-1.485 1.485 1.486-1.485 1.484-1.485-1.485Zm12.902-6.94 1.485-1.485 1.485 1.485-1.485 1.485-1.485-1.485Zm6.264 2.55 1.485-1.485 1.485 1.485-1.485 1.484-1.485-1.484Zm8.334-5.726 1.485-1.484 1.485 1.485-1.485 1.485-1.485-1.486Z" fill="#FFAB41"/></svg>